<svg xmlns="http://www.w3.org/2000/svg" xmlns:xlink="http://www.w3.org/1999/xlink" width="500" zoomAndPan="magnify" viewBox="0 0 375 374.999991" height="500" preserveAspectRatio="xMidYMid meet" version="1.0"><defs><clipPath id="f17d7c3dfd"><path d="M 18.75 138 L 249 138 L 249 356.25 L 18.75 356.25 Z M 18.75 138 " clip-rule="nonzero"/></clipPath><clipPath id="1c1e31ef15"><path d="M 124 19 L 356.25 19 L 356.25 210 L 124 210 Z M 124 19 " clip-rule="nonzero"/></clipPath></defs><g clip-path="url(#f17d7c3dfd)"><path fill="#38b6ff" d="M 235.101562 279.058594 C 230.230469 274.183594 225.742188 268.984375 221.636719 263.453125 L 221.636719 295.613281 C 221.660156 296.746094 221.625 297.875 221.535156 299.003906 C 221.445312 300.132812 221.300781 301.253906 221.097656 302.371094 C 220.898438 303.484375 220.640625 304.585938 220.332031 305.675781 C 220.019531 306.765625 219.65625 307.835938 219.238281 308.886719 C 218.820312 309.941406 218.351562 310.972656 217.832031 311.976562 C 217.3125 312.984375 216.742188 313.960938 216.125 314.910156 C 215.507812 315.859375 214.847656 316.777344 214.136719 317.660156 C 213.429688 318.542969 212.679688 319.390625 211.886719 320.199219 C 211.09375 321.007812 210.261719 321.777344 209.394531 322.503906 C 208.523438 323.230469 207.621094 323.910156 206.683594 324.546875 C 205.746094 325.183594 204.78125 325.769531 203.785156 326.3125 C 202.789062 326.851562 201.769531 327.339844 200.726562 327.78125 C 199.679688 328.21875 198.617188 328.605469 197.535156 328.9375 C 196.453125 329.269531 195.355469 329.546875 194.246094 329.773438 C 193.136719 329.996094 192.015625 330.164062 190.890625 330.277344 C 189.761719 330.390625 188.632812 330.445312 187.5 330.445312 C 186.367188 330.445312 185.238281 330.390625 184.109375 330.277344 C 182.984375 330.164062 181.863281 329.996094 180.753906 329.773438 C 179.644531 329.546875 178.546875 329.269531 177.464844 328.9375 C 176.382812 328.605469 175.320312 328.21875 174.273438 327.78125 C 173.230469 327.339844 172.210938 326.851562 171.214844 326.3125 C 170.21875 325.769531 169.253906 325.183594 168.316406 324.546875 C 167.378906 323.910156 166.476562 323.230469 165.605469 322.503906 C 164.738281 321.777344 163.90625 321.007812 163.113281 320.199219 C 162.320312 319.390625 161.570312 318.542969 160.863281 317.660156 C 160.152344 316.777344 159.492188 315.859375 158.875 314.910156 C 158.257812 313.960938 157.6875 312.984375 157.167969 311.976562 C 156.648438 310.972656 156.179688 309.941406 155.761719 308.886719 C 155.34375 307.835938 154.980469 306.765625 154.667969 305.675781 C 154.359375 304.585938 154.101562 303.484375 153.902344 302.371094 C 153.699219 301.253906 153.554688 300.132812 153.464844 299.003906 C 153.375 297.875 153.339844 296.746094 153.363281 295.613281 L 153.363281 221.636719 L 79.414062 221.636719 C 77.621094 221.636719 75.839844 221.496094 74.066406 221.214844 C 72.292969 220.933594 70.554688 220.515625 68.847656 219.960938 C 67.144531 219.40625 65.492188 218.722656 63.894531 217.90625 C 62.292969 217.089844 60.769531 216.152344 59.320312 215.097656 C 57.871094 214.042969 56.511719 212.878906 55.246094 211.609375 C 53.976562 210.335938 52.816406 208.976562 51.765625 207.519531 C 50.714844 206.066406 49.78125 204.539062 48.972656 202.941406 C 48.160156 201.339844 47.480469 199.6875 46.929688 197.976562 C 46.382812 196.269531 45.96875 194.53125 45.691406 192.757812 C 45.417969 190.984375 45.28125 189.199219 45.289062 187.40625 C 45.292969 185.613281 45.441406 183.828125 45.730469 182.058594 C 46.015625 180.289062 46.441406 178.550781 47 176.84375 C 47.5625 175.140625 48.253906 173.492188 49.078125 171.898438 C 49.898438 170.300781 50.839844 168.78125 51.902344 167.335938 C 52.964844 165.886719 54.132812 164.535156 55.40625 163.273438 C 56.683594 162.011719 58.046875 160.855469 59.507812 159.808594 L 62.09375 157.949219 C 58.757812 155.167969 55.652344 152.148438 52.78125 148.890625 C 49.738281 145.433594 46.890625 141.820312 44.238281 138.054688 L 42.980469 138.992188 C 41.71875 139.941406 40.492188 140.9375 39.308594 141.980469 C 38.125 143.023438 36.980469 144.113281 35.882812 145.246094 C 34.78125 146.378906 33.726562 147.554688 32.71875 148.769531 C 31.710938 149.984375 30.753906 151.238281 29.84375 152.527344 C 28.929688 153.820312 28.074219 155.140625 27.265625 156.5 C 26.457031 157.855469 25.707031 159.242188 25.007812 160.660156 C 24.308594 162.078125 23.667969 163.519531 23.082031 164.984375 C 22.492188 166.449219 21.964844 167.9375 21.496094 169.445312 C 21.027344 170.953125 20.613281 172.476562 20.265625 174.015625 C 19.914062 175.554688 19.621094 177.105469 19.390625 178.667969 C 19.164062 180.230469 18.992188 181.800781 18.886719 183.375 C 18.777344 184.953125 18.734375 186.527344 18.75 188.109375 C 18.765625 189.6875 18.839844 191.265625 18.980469 192.835938 C 19.117188 194.410156 19.320312 195.976562 19.578125 197.53125 C 19.839844 199.089844 20.160156 200.636719 20.542969 202.167969 C 20.925781 203.699219 21.367188 205.214844 21.863281 206.714844 C 22.363281 208.210938 22.921875 209.6875 23.539062 211.140625 C 24.152344 212.597656 24.824219 214.023438 25.550781 215.425781 C 26.277344 216.828125 27.058594 218.199219 27.890625 219.542969 C 28.722656 220.882812 29.609375 222.191406 30.546875 223.460938 C 31.480469 224.734375 32.464844 225.96875 33.496094 227.164062 C 34.527344 228.359375 35.605469 229.511719 36.726562 230.621094 C 37.851562 231.734375 39.015625 232.800781 40.21875 233.820312 C 41.425781 234.839844 42.667969 235.8125 43.949219 236.734375 C 45.230469 237.660156 46.546875 238.53125 47.894531 239.351562 C 49.242188 240.171875 50.625 240.9375 52.03125 241.652344 C 53.441406 242.363281 54.875 243.023438 56.335938 243.621094 C 57.796875 244.222656 59.277344 244.765625 60.78125 245.25 C 62.285156 245.738281 63.804688 246.164062 65.339844 246.53125 C 66.875 246.894531 68.425781 247.203125 69.984375 247.449219 C 71.542969 247.695312 73.109375 247.878906 74.683594 248 C 76.261719 248.125 77.835938 248.1875 79.414062 248.1875 L 126.8125 248.1875 L 126.8125 295.554688 C 126.796875 296.558594 126.808594 297.5625 126.84375 298.5625 C 126.875 299.566406 126.9375 300.566406 127.019531 301.566406 C 127.105469 302.566406 127.210938 303.5625 127.347656 304.554688 C 127.480469 305.550781 127.636719 306.539062 127.820312 307.527344 C 128.003906 308.511719 128.210938 309.492188 128.441406 310.46875 C 128.671875 311.445312 128.925781 312.414062 129.207031 313.378906 C 129.484375 314.339844 129.789062 315.296875 130.117188 316.246094 C 130.441406 317.195312 130.792969 318.132812 131.164062 319.0625 C 131.539062 319.996094 131.933594 320.917969 132.355469 321.828125 C 132.773438 322.738281 133.214844 323.640625 133.675781 324.527344 C 134.140625 325.417969 134.625 326.296875 135.132812 327.160156 C 135.640625 328.027344 136.167969 328.878906 136.71875 329.71875 C 137.265625 330.554688 137.835938 331.382812 138.425781 332.191406 C 139.015625 333.003906 139.625 333.796875 140.257812 334.578125 C 140.886719 335.359375 141.535156 336.125 142.203125 336.875 C 142.867188 337.621094 143.554688 338.351562 144.257812 339.066406 C 144.960938 339.78125 145.683594 340.480469 146.421875 341.15625 C 147.160156 341.835938 147.914062 342.496094 148.683594 343.136719 C 149.457031 343.777344 150.242188 344.402344 151.042969 345.003906 C 151.847656 345.605469 152.664062 346.1875 153.492188 346.75 C 154.324219 347.3125 155.167969 347.851562 156.027344 348.371094 C 156.882812 348.894531 157.753906 349.390625 158.636719 349.867188 C 159.519531 350.34375 160.410156 350.800781 161.316406 351.234375 C 162.222656 351.664062 163.136719 352.074219 164.0625 352.460938 C 164.984375 352.851562 165.921875 353.214844 166.863281 353.554688 C 167.804688 353.894531 168.757812 354.214844 169.714844 354.507812 C 170.675781 354.800781 171.640625 355.070312 172.613281 355.316406 C 173.585938 355.5625 174.5625 355.785156 175.546875 355.984375 C 176.53125 356.179688 177.515625 356.351562 178.507812 356.5 C 179.5 356.648438 180.496094 356.773438 181.492188 356.875 C 182.492188 356.972656 183.492188 357.046875 184.492188 357.097656 C 185.496094 357.148438 186.496094 357.171875 187.5 357.171875 C 188.503906 357.171875 189.503906 357.148438 190.507812 357.097656 C 191.507812 357.046875 192.507812 356.972656 193.507812 356.875 C 194.503906 356.773438 195.5 356.648438 196.492188 356.5 C 197.484375 356.351562 198.46875 356.179688 199.453125 355.984375 C 200.4375 355.785156 201.414062 355.5625 202.386719 355.316406 C 203.359375 355.070312 204.324219 354.800781 205.285156 354.507812 C 206.242188 354.214844 207.195312 353.894531 208.136719 353.554688 C 209.078125 353.214844 210.015625 352.851562 210.9375 352.460938 C 211.863281 352.074219 212.777344 351.664062 213.683594 351.234375 C 214.589844 350.800781 215.480469 350.34375 216.363281 349.867188 C 217.246094 349.390625 218.117188 348.894531 218.972656 348.371094 C 219.832031 347.851562 220.675781 347.3125 221.507812 346.75 C 222.335938 346.1875 223.152344 345.605469 223.957031 345.003906 C 224.757812 344.402344 225.542969 343.777344 226.316406 343.136719 C 227.085938 342.496094 227.839844 341.835938 228.578125 341.15625 C 229.316406 340.480469 230.039062 339.78125 230.742188 339.066406 C 231.445312 338.351562 232.132812 337.621094 232.796875 336.875 C 233.464844 336.125 234.113281 335.359375 234.742188 334.578125 C 235.375 333.796875 235.984375 333.003906 236.574219 332.191406 C 237.164062 331.382812 237.734375 330.554688 238.28125 329.71875 C 238.832031 328.878906 239.359375 328.027344 239.867188 327.160156 C 240.375 326.296875 240.859375 325.417969 241.324219 324.527344 C 241.785156 323.640625 242.226562 322.738281 242.644531 321.828125 C 243.066406 320.917969 243.460938 319.996094 243.835938 319.0625 C 244.207031 318.132812 244.558594 317.195312 244.882812 316.246094 C 245.210938 315.296875 245.515625 314.339844 245.792969 313.378906 C 246.074219 312.414062 246.328125 311.445312 246.558594 310.46875 C 246.789062 309.492188 246.996094 308.511719 247.179688 307.527344 C 247.363281 306.539062 247.519531 305.550781 247.652344 304.554688 C 247.789062 303.5625 247.894531 302.566406 247.980469 301.566406 C 248.0625 300.566406 248.125 299.566406 248.15625 298.5625 C 248.191406 297.5625 248.203125 296.558594 248.1875 295.554688 L 248.1875 290.101562 C 243.519531 286.78125 239.15625 283.101562 235.101562 279.058594 Z M 235.101562 279.058594 " fill-opacity="1" fill-rule="nonzero"/></g><g clip-path="url(#1c1e31ef15)"><path fill="#2d51f5" d="M 132.546875 138.515625 C 130.527344 143.230469 127.730469 147.421875 124.15625 151.097656 L 125.039062 153.097656 L 125.039062 153.308594 L 153.363281 153.308594 L 153.363281 79.414062 C 153.386719 78.3125 153.460938 77.210938 153.589844 76.117188 C 153.71875 75.019531 153.902344 73.933594 154.136719 72.855469 C 154.371094 71.773438 154.65625 70.710938 154.996094 69.660156 C 155.332031 68.609375 155.71875 67.578125 156.15625 66.5625 C 156.597656 65.550781 157.082031 64.558594 157.617188 63.59375 C 158.148438 62.628906 158.726562 61.691406 159.351562 60.78125 C 159.976562 59.871094 160.644531 58.992188 161.355469 58.148438 C 162.066406 57.300781 162.8125 56.492188 163.601562 55.722656 C 164.390625 54.949219 165.214844 54.214844 166.074219 53.523438 C 166.933594 52.832031 167.824219 52.179688 168.746094 51.574219 C 169.667969 50.96875 170.617188 50.40625 171.597656 49.894531 C 172.574219 49.378906 173.570312 48.914062 174.59375 48.496094 C 175.617188 48.078125 176.65625 47.710938 177.710938 47.394531 C 178.769531 47.078125 179.839844 46.816406 180.921875 46.601562 C 182.007812 46.390625 183.097656 46.230469 184.195312 46.125 C 185.296875 46.015625 186.394531 45.964844 187.5 45.964844 C 188.605469 45.964844 189.703125 46.015625 190.804688 46.125 C 191.902344 46.230469 192.992188 46.390625 194.078125 46.601562 C 195.160156 46.816406 196.230469 47.078125 197.289062 47.394531 C 198.34375 47.710938 199.382812 48.078125 200.40625 48.496094 C 201.429688 48.914062 202.425781 49.378906 203.402344 49.894531 C 204.382812 50.40625 205.332031 50.96875 206.253906 51.574219 C 207.175781 52.179688 208.066406 52.832031 208.925781 53.523438 C 209.785156 54.214844 210.609375 54.949219 211.398438 55.722656 C 212.1875 56.492188 212.933594 57.300781 213.644531 58.148438 C 214.355469 58.992188 215.023438 59.871094 215.648438 60.78125 C 216.269531 61.691406 216.851562 62.628906 217.382812 63.59375 C 217.917969 64.558594 218.402344 65.550781 218.84375 66.5625 C 219.28125 67.578125 219.667969 68.609375 220.003906 69.660156 C 220.34375 70.710938 220.628906 71.773438 220.863281 72.855469 C 221.097656 73.933594 221.28125 75.019531 221.410156 76.117188 C 221.539062 77.210938 221.613281 78.3125 221.636719 79.414062 L 221.636719 153.363281 L 234.332031 153.363281 C 236.421875 152.351562 238.59375 151.589844 240.859375 151.070312 C 243.121094 150.550781 245.410156 150.292969 247.730469 150.292969 C 250.054688 150.292969 252.34375 150.550781 254.605469 151.070312 C 256.867188 151.589844 259.042969 152.351562 261.132812 153.363281 L 295.554688 153.363281 C 296.671875 153.367188 297.789062 153.421875 298.898438 153.53125 C 300.011719 153.644531 301.117188 153.808594 302.210938 154.027344 C 303.308594 154.246094 304.390625 154.519531 305.457031 154.84375 C 306.527344 155.167969 307.578125 155.546875 308.609375 155.972656 C 309.640625 156.402344 310.652344 156.878906 311.636719 157.40625 C 312.621094 157.933594 313.578125 158.507812 314.507812 159.128906 C 315.4375 159.75 316.332031 160.414062 317.195312 161.125 C 318.058594 161.832031 318.886719 162.582031 319.675781 163.371094 C 320.46875 164.164062 321.214844 164.988281 321.925781 165.851562 C 322.632812 166.714844 323.300781 167.613281 323.921875 168.542969 C 324.542969 169.472656 325.117188 170.429688 325.644531 171.414062 C 326.171875 172.398438 326.648438 173.40625 327.074219 174.4375 C 327.503906 175.472656 327.882812 176.523438 328.207031 177.589844 C 328.53125 178.660156 328.804688 179.742188 329.023438 180.835938 C 329.242188 181.933594 329.40625 183.039062 329.515625 184.148438 C 329.628906 185.261719 329.683594 186.375 329.683594 187.492188 C 329.683594 189.570312 329.492188 191.628906 329.113281 193.671875 C 338.746094 195.589844 346.828125 199.363281 351.59375 207.820312 C 351.847656 208.269531 352.054688 208.730469 352.277344 209.21875 L 353.175781 206.535156 C 353.550781 205.402344 353.890625 204.257812 354.195312 203.101562 C 354.503906 201.945312 354.777344 200.785156 355.015625 199.613281 C 355.253906 198.441406 355.457031 197.265625 355.625 196.082031 C 355.796875 194.898438 355.929688 193.714844 356.027344 192.523438 C 356.125 191.332031 356.191406 190.140625 356.21875 188.945312 C 356.246094 187.75 356.238281 186.554688 356.199219 185.359375 C 356.15625 184.167969 356.078125 182.976562 355.964844 181.785156 C 355.851562 180.597656 355.703125 179.410156 355.523438 178.230469 C 355.339844 177.050781 355.121094 175.875 354.871094 174.707031 C 354.617188 173.539062 354.332031 172.378906 354.011719 171.226562 C 353.691406 170.078125 353.335938 168.9375 352.949219 167.804688 C 352.558594 166.675781 352.136719 165.558594 351.683594 164.453125 C 351.230469 163.347656 350.746094 162.257812 350.226562 161.179688 C 349.707031 160.105469 349.15625 159.042969 348.574219 158 C 347.996094 156.957031 347.382812 155.929688 346.742188 154.921875 C 346.101562 153.914062 345.429688 152.925781 344.726562 151.957031 C 344.027344 150.988281 343.300781 150.042969 342.542969 149.117188 C 341.789062 148.191406 341.003906 147.289062 340.195312 146.410156 C 339.386719 145.53125 338.550781 144.675781 337.691406 143.847656 C 336.832031 143.019531 335.949219 142.214844 335.039062 141.4375 C 334.132812 140.660156 333.203125 139.910156 332.25 139.1875 C 331.300781 138.464844 330.328125 137.769531 329.335938 137.105469 C 328.34375 136.441406 327.332031 135.804688 326.300781 135.199219 C 325.269531 134.59375 324.222656 134.019531 323.160156 133.476562 C 322.09375 132.933594 321.015625 132.421875 319.921875 131.941406 C 318.828125 131.464844 317.71875 131.015625 316.597656 130.601562 C 315.476562 130.1875 314.34375 129.808594 313.203125 129.460938 C 312.058594 129.113281 310.90625 128.800781 309.746094 128.519531 C 308.582031 128.242188 307.414062 127.996094 306.238281 127.785156 C 305.0625 127.578125 303.878906 127.402344 302.691406 127.261719 C 301.507812 127.121094 300.316406 127.015625 299.125 126.945312 C 297.929688 126.875 296.738281 126.839844 295.542969 126.839844 L 248.1875 126.839844 L 248.1875 79.414062 C 248.15625 77.449219 248.03125 75.484375 247.8125 73.527344 C 247.589844 71.574219 247.273438 69.632812 246.863281 67.707031 C 246.457031 65.78125 245.953125 63.878906 245.359375 62.003906 C 244.765625 60.125 244.078125 58.285156 243.304688 56.472656 C 242.53125 54.664062 241.671875 52.894531 240.726562 51.167969 C 239.78125 49.441406 238.753906 47.765625 237.644531 46.140625 C 236.535156 44.515625 235.347656 42.945312 234.085938 41.433594 C 232.824219 39.921875 231.492188 38.476562 230.089844 37.09375 C 228.6875 35.714844 227.222656 34.402344 225.691406 33.164062 C 224.160156 31.925781 222.574219 30.765625 220.933594 29.679688 C 219.289062 28.597656 217.597656 27.59375 215.855469 26.675781 C 214.117188 25.753906 212.335938 24.921875 210.511719 24.175781 C 208.691406 23.429688 206.839844 22.773438 204.953125 22.207031 C 203.066406 21.640625 201.160156 21.167969 199.226562 20.785156 C 197.296875 20.40625 195.351562 20.121094 193.390625 19.929688 C 191.433594 19.738281 189.46875 19.644531 187.5 19.644531 C 185.53125 19.644531 183.566406 19.738281 181.609375 19.929688 C 179.648438 20.121094 177.703125 20.40625 175.773438 20.785156 C 173.839844 21.167969 171.933594 21.640625 170.046875 22.207031 C 168.160156 22.773438 166.308594 23.429688 164.488281 24.175781 C 162.664062 24.921875 160.882812 25.753906 159.144531 26.675781 C 157.402344 27.59375 155.710938 28.597656 154.066406 29.679688 C 152.425781 30.765625 150.839844 31.925781 149.308594 33.164062 C 147.777344 34.402344 146.3125 35.714844 144.910156 37.09375 C 143.507812 38.476562 142.175781 39.921875 140.914062 41.433594 C 139.652344 42.945312 138.464844 44.511719 137.355469 46.140625 C 136.246094 47.765625 135.21875 49.441406 134.273438 51.167969 C 133.328125 52.894531 132.46875 54.664062 131.695312 56.472656 C 130.921875 58.285156 130.234375 60.125 129.640625 62.003906 C 129.046875 63.878906 128.542969 65.78125 128.136719 67.707031 C 127.726562 69.632812 127.410156 71.574219 127.1875 73.527344 C 126.96875 75.484375 126.84375 77.449219 126.8125 79.414062 L 126.8125 80.535156 C 133.945312 97.925781 138.027344 125.207031 132.546875 138.515625 Z M 132.546875 138.515625 " fill-opacity="1" fill-rule="nonzero"/></g><path fill="#38b6ff" d="M 37.945312 107.378906 C 39.105469 116.117188 48 131.734375 58.640625 143.730469 C 63.015625 148.652344 69.515625 154.984375 75.640625 157.238281 C 78.410156 158.1875 81.253906 158.796875 84.171875 159.066406 C 87.089844 159.335938 89.996094 159.257812 92.894531 158.832031 L 95.957031 165.820312 C 96.414062 166.875 97.09375 167.753906 98 168.457031 C 98.90625 169.164062 99.925781 169.605469 101.058594 169.792969 L 101.378906 170.8125 L 104.597656 169.414062 C 104.917969 170.324219 105.253906 171.148438 105.601562 171.945312 C 107.738281 176.835938 110.578125 181.277344 114.117188 185.269531 C 117.183594 188.65625 120.625 191.609375 124.4375 194.125 C 128.253906 196.644531 132.320312 198.644531 136.640625 200.132812 C 149.140625 204.621094 159.640625 203.125 168.925781 201.796875 C 184.808594 199.515625 195.308594 198.019531 209.738281 228.472656 C 218.042969 246.035156 229.019531 262.015625 240.59375 273.519531 C 254.367188 287.167969 268.992188 294.492188 282.890625 294.855469 C 303.527344 295.25 321.671875 281.085938 336.773438 252.5625 C 347.050781 233.210938 349.609375 220.167969 344.800781 211.667969 C 338.84375 201.097656 324.175781 200.273438 307.175781 199.308594 C 294.226562 198.582031 279.601562 197.753906 268.027344 192.316406 C 268.253906 191.90625 268.46875 191.492188 268.667969 191.066406 C 268.871094 190.644531 269.058594 190.21875 269.234375 189.785156 C 269.40625 189.347656 269.570312 188.910156 269.71875 188.464844 C 269.867188 188.023438 270 187.574219 270.125 187.121094 C 270.246094 186.671875 270.351562 186.214844 270.445312 185.757812 C 270.539062 185.296875 270.617188 184.835938 270.683594 184.375 C 270.75 183.910156 270.800781 183.445312 270.839844 182.976562 C 270.875 182.511719 270.898438 182.042969 270.90625 181.578125 C 270.917969 181.109375 270.910156 180.640625 270.890625 180.171875 C 270.871094 179.707031 270.839844 179.238281 270.789062 178.773438 C 270.742188 178.308594 270.679688 177.84375 270.605469 177.382812 C 270.527344 176.921875 270.4375 176.460938 270.335938 176.003906 C 270.230469 175.546875 270.113281 175.09375 269.980469 174.648438 C 269.847656 174.199219 269.703125 173.753906 269.546875 173.3125 C 269.386719 172.871094 269.214844 172.4375 269.03125 172.007812 C 268.84375 171.578125 268.648438 171.152344 268.4375 170.734375 C 268.226562 170.316406 268.003906 169.90625 267.765625 169.5 C 267.53125 169.097656 267.28125 168.699219 267.023438 168.3125 C 266.761719 167.921875 266.492188 167.539062 266.207031 167.167969 C 265.925781 166.796875 265.632812 166.429688 265.328125 166.078125 C 265.019531 165.722656 264.707031 165.375 264.378906 165.039062 C 264.054688 164.707031 263.71875 164.378906 263.371094 164.066406 C 263.023438 163.75 262.667969 163.445312 262.304688 163.152344 C 261.941406 162.859375 261.566406 162.574219 261.1875 162.304688 C 260.804688 162.035156 260.414062 161.773438 260.015625 161.527344 C 259.621094 161.28125 259.214844 161.042969 258.804688 160.820312 C 258.390625 160.597656 257.972656 160.390625 257.550781 160.191406 C 257.125 159.996094 256.695312 159.808594 256.257812 159.640625 C 255.824219 159.46875 255.382812 159.308594 254.9375 159.167969 C 254.492188 159.023438 254.042969 158.890625 253.589844 158.773438 C 253.136719 158.65625 252.679688 158.554688 252.222656 158.464844 C 251.761719 158.375 251.300781 158.300781 250.835938 158.238281 C 250.371094 158.175781 249.90625 158.128906 249.441406 158.097656 C 248.972656 158.066406 248.503906 158.046875 248.039062 158.042969 C 247.570312 158.035156 247.101562 158.046875 246.632812 158.070312 C 246.167969 158.09375 245.699219 158.132812 245.234375 158.183594 C 244.769531 158.238281 244.308594 158.304688 243.847656 158.382812 C 243.382812 158.464844 242.925781 158.558594 242.472656 158.667969 C 242.015625 158.773438 241.5625 158.898438 241.117188 159.03125 C 240.667969 159.167969 240.226562 159.316406 239.785156 159.480469 C 239.347656 159.644531 238.914062 159.820312 238.484375 160.007812 C 238.058594 160.195312 237.636719 160.398438 237.21875 160.613281 C 236.804688 160.828125 236.394531 161.054688 235.992188 161.296875 C 235.589844 161.535156 235.195312 161.785156 234.808594 162.050781 C 234.421875 162.3125 234.042969 162.589844 233.671875 162.875 C 233.304688 163.160156 232.941406 163.460938 232.589844 163.769531 C 232.238281 164.078125 231.894531 164.394531 231.5625 164.722656 C 231.230469 165.054688 230.910156 165.394531 230.597656 165.742188 C 230.285156 166.089844 229.984375 166.449219 229.691406 166.816406 C 229.402344 167.183594 229.125 167.558594 228.855469 167.941406 C 228.589844 168.328125 228.332031 168.71875 228.089844 169.117188 C 227.847656 169.519531 227.617188 169.925781 227.398438 170.339844 C 227.179688 170.753906 226.972656 171.171875 226.777344 171.597656 C 226.585938 172.027344 226.40625 172.457031 226.238281 172.894531 C 226.070312 173.332031 225.917969 173.773438 225.777344 174.21875 C 225.636719 174.667969 225.511719 175.117188 225.398438 175.570312 C 225.285156 176.027344 225.1875 176.484375 225.101562 176.945312 C 225.015625 177.402344 224.945312 177.867188 224.886719 178.332031 C 224.832031 178.796875 224.789062 179.261719 224.761719 179.730469 C 224.730469 180.195312 224.71875 180.664062 224.71875 181.132812 C 224.71875 181.597656 224.730469 182.066406 224.757812 182.535156 C 224.789062 183 224.832031 183.46875 224.886719 183.933594 C 224.945312 184.398438 225.015625 184.859375 225.097656 185.320312 C 225.183594 185.78125 225.28125 186.238281 225.394531 186.691406 C 225.507812 187.144531 225.632812 187.597656 225.773438 188.042969 C 225.914062 188.488281 226.066406 188.929688 226.234375 189.367188 C 226.398438 189.804688 226.582031 190.238281 226.773438 190.664062 C 226.964844 191.089844 227.171875 191.511719 227.390625 191.925781 C 227.609375 192.339844 227.839844 192.746094 228.082031 193.144531 C 228.328125 193.546875 228.582031 193.9375 228.847656 194.320312 C 229.117188 194.707031 229.394531 195.082031 229.683594 195.449219 C 229.976562 195.816406 230.277344 196.175781 230.589844 196.523438 C 230.898438 196.875 231.222656 197.210938 231.554688 197.542969 C 231.886719 197.871094 232.230469 198.191406 232.582031 198.5 C 232.933594 198.808594 233.292969 199.105469 233.664062 199.390625 C 234.035156 199.679688 234.410156 199.953125 234.796875 200.21875 C 235.183594 200.480469 235.578125 200.734375 235.980469 200.972656 C 236.382812 201.214844 236.792969 201.441406 237.207031 201.65625 C 237.625 201.871094 238.046875 202.074219 238.472656 202.261719 C 238.902344 202.453125 239.335938 202.628906 239.773438 202.789062 C 240.210938 202.953125 240.65625 203.101562 241.105469 203.238281 C 241.550781 203.375 242.003906 203.496094 242.457031 203.605469 C 242.914062 203.714844 243.371094 203.808594 243.832031 203.890625 C 244.292969 203.96875 244.757812 204.035156 245.222656 204.089844 C 245.6875 204.140625 246.152344 204.179688 246.621094 204.203125 C 247.089844 204.230469 247.554688 204.238281 248.023438 204.234375 C 248.492188 204.230469 248.960938 204.210938 249.425781 204.179688 C 249.894531 204.144531 250.359375 204.097656 250.824219 204.039062 C 251.289062 203.976562 251.75 203.902344 252.207031 203.8125 C 252.667969 203.722656 253.125 203.621094 253.578125 203.503906 C 254.03125 203.386719 254.480469 203.257812 254.925781 203.113281 C 255.371094 202.96875 255.8125 202.8125 256.246094 202.640625 C 256.683594 202.46875 257.113281 202.285156 257.539062 202.089844 C 257.960938 201.890625 258.378906 201.683594 258.792969 201.460938 C 259.203125 201.238281 259.609375 201.003906 260.007812 200.753906 C 260.402344 200.507812 260.792969 200.25 261.175781 199.976562 C 275.15625 207.390625 291.851562 208.367188 306.65625 209.179688 C 320.164062 209.933594 332.914062 210.660156 336.199219 216.503906 C 338.199219 220.027344 338.394531 228.332031 328.050781 247.878906 C 314.792969 272.851562 299.652344 285.363281 283.113281 284.945312 C 256.546875 284.355469 231.800781 251.890625 218.714844 224.277344 C 201.140625 187.214844 184.054688 189.660156 167.511719 192.023438 C 158.984375 193.238281 150.175781 194.511719 139.996094 190.847656 C 123.878906 185.058594 116.761719 174.140625 113.628906 165.5 L 114.3125 165.207031 C 114.722656 165.027344 115.105469 164.8125 115.472656 164.558594 C 115.835938 164.304688 116.171875 164.015625 116.480469 163.695312 C 116.789062 163.375 117.0625 163.027344 117.304688 162.652344 C 117.542969 162.277344 117.742188 161.882812 117.90625 161.46875 C 118.070312 161.054688 118.1875 160.628906 118.265625 160.191406 C 118.347656 159.753906 118.382812 159.3125 118.371094 158.867188 C 118.363281 158.421875 118.3125 157.984375 118.21875 157.550781 C 118.121094 157.113281 117.988281 156.695312 117.808594 156.285156 L 114.734375 149.296875 C 117.015625 147.460938 119.050781 145.378906 120.835938 143.054688 C 122.621094 140.734375 124.105469 138.230469 125.289062 135.550781 C 131.1875 121.359375 123.570312 85.21875 114.328125 74.03125 C 110.132812 69.042969 103.773438 66.160156 95.71875 65.644531 C 95.203125 64.691406 94.566406 63.820312 93.816406 63.039062 C 93.0625 62.253906 92.222656 61.585938 91.289062 61.03125 C 90.355469 60.476562 89.367188 60.054688 88.320312 59.765625 C 87.273438 59.480469 86.207031 59.335938 85.121094 59.339844 C 84.625 59.339844 84.132812 59.371094 83.640625 59.433594 C 83.148438 59.496094 82.664062 59.585938 82.183594 59.710938 C 81.703125 59.832031 81.234375 59.984375 80.773438 60.164062 C 80.3125 60.34375 79.863281 60.554688 79.429688 60.789062 C 78.992188 61.023438 78.574219 61.285156 78.171875 61.574219 C 77.769531 61.863281 77.386719 62.175781 77.019531 62.507812 C 76.65625 62.84375 76.316406 63.203125 75.996094 63.578125 C 75.675781 63.957031 75.378906 64.351562 75.109375 64.765625 C 74.835938 65.183594 74.59375 65.609375 74.375 66.054688 C 74.15625 66.5 73.96875 66.957031 73.804688 67.425781 C 73.644531 67.894531 73.511719 68.367188 73.410156 68.855469 C 73.308594 69.339844 73.234375 69.828125 73.195312 70.320312 C 73.152344 70.8125 73.140625 71.308594 73.160156 71.800781 C 73.179688 72.296875 73.230469 72.789062 73.308594 73.277344 C 73.390625 73.765625 73.5 74.246094 73.640625 74.722656 C 73.777344 75.199219 73.949219 75.660156 74.144531 76.117188 C 74.621094 77.207031 75.25 78.207031 76.023438 79.109375 C 76.796875 80.015625 77.6875 80.789062 78.691406 81.429688 C 79.695312 82.066406 80.773438 82.546875 81.917969 82.867188 C 83.066406 83.1875 84.234375 83.335938 85.425781 83.308594 C 86.617188 83.277344 87.777344 83.078125 88.910156 82.707031 C 90.039062 82.332031 91.09375 81.800781 92.066406 81.117188 C 93.039062 80.429688 93.894531 79.617188 94.625 78.675781 C 95.355469 77.738281 95.933594 76.710938 96.363281 75.597656 C 100.863281 76.058594 104.246094 77.542969 106.457031 80.03125 L 106.679688 80.296875 C 109.953125 84.238281 113.558594 94.363281 115.65625 105.464844 C 117.753906 116.566406 117.960938 127.203125 116.117188 131.636719 C 112.746094 139.761719 103.535156 145.210938 100.667969 146.765625 C 97.550781 147.839844 87.328125 150.875 79.066406 147.828125 C 74.5625 146.175781 66.972656 138.894531 60.175781 129.652344 C 53.382812 120.410156 48.460938 111.027344 47.789062 105.882812 C 47.328125 102.484375 48.53125 98.890625 51.355469 95.117188 C 51.8125 95.300781 52.28125 95.453125 52.757812 95.578125 C 53.234375 95.703125 53.714844 95.800781 54.203125 95.867188 C 54.691406 95.933594 55.183594 95.96875 55.675781 95.972656 C 56.167969 95.980469 56.65625 95.953125 57.148438 95.898438 C 57.636719 95.84375 58.121094 95.757812 58.601562 95.644531 C 59.082031 95.53125 59.550781 95.386719 60.011719 95.214844 C 60.472656 95.042969 60.921875 94.84375 61.359375 94.613281 C 61.796875 94.386719 62.21875 94.132812 62.625 93.855469 C 63.03125 93.574219 63.417969 93.269531 63.785156 92.945312 C 64.152344 92.617188 64.5 92.269531 64.824219 91.898438 C 65.152344 91.527344 65.453125 91.140625 65.730469 90.734375 C 66.007812 90.324219 66.257812 89.902344 66.484375 89.464844 C 66.710938 89.027344 66.910156 88.578125 67.078125 88.117188 C 67.25 87.652344 67.390625 87.183594 67.503906 86.703125 C 67.617188 86.222656 67.699219 85.738281 67.75 85.246094 C 67.804688 84.757812 67.824219 84.265625 67.820312 83.773438 C 67.8125 83.28125 67.773438 82.792969 67.703125 82.304688 C 67.636719 81.816406 67.539062 81.332031 67.410156 80.859375 C 67.285156 80.382812 67.128906 79.914062 66.941406 79.457031 C 66.757812 79.003906 66.546875 78.558594 66.304688 78.128906 C 66.066406 77.695312 65.800781 77.28125 65.511719 76.886719 C 65.222656 76.488281 64.90625 76.109375 64.570312 75.75 C 64.234375 75.390625 63.875 75.050781 63.496094 74.738281 C 63.117188 74.421875 62.722656 74.128906 62.308594 73.863281 C 61.894531 73.597656 61.464844 73.355469 61.019531 73.144531 C 60.578125 72.929688 60.121094 72.742188 59.65625 72.585938 C 59.1875 72.429688 58.714844 72.300781 58.230469 72.199219 C 57.75 72.101562 57.261719 72.03125 56.769531 71.992188 C 56.28125 71.953125 55.789062 71.945312 55.296875 71.964844 C 54.804688 71.984375 54.3125 72.035156 53.828125 72.117188 C 53.34375 72.199219 52.863281 72.308594 52.390625 72.449219 C 51.917969 72.589844 51.457031 72.757812 51.003906 72.957031 C 50.3125 73.257812 49.652344 73.621094 49.027344 74.046875 C 48.402344 74.472656 47.820312 74.953125 47.285156 75.488281 C 46.75 76.023438 46.273438 76.601562 45.847656 77.230469 C 45.421875 77.855469 45.058594 78.515625 44.757812 79.207031 C 44.457031 79.902344 44.222656 80.617188 44.054688 81.355469 C 43.890625 82.09375 43.792969 82.839844 43.769531 83.597656 C 43.742188 84.351562 43.789062 85.105469 43.90625 85.851562 C 44.023438 86.601562 44.207031 87.328125 44.460938 88.042969 C 39.34375 94.292969 37.09375 100.960938 37.945312 107.378906 Z M 37.945312 107.378906 " fill-opacity="1" fill-rule="nonzero"/></svg>